<?xml version="1.0" encoding="utf-8"?>
<!-- Generator: Adobe Illustrator 21.0.0, SVG Export Plug-In . SVG Version: 6.00 Build 0)  -->
<svg version="1.1" id="Layer_1" xmlns="http://www.w3.org/2000/svg" xmlns:xlink="http://www.w3.org/1999/xlink" x="0px" y="0px"
	 viewBox="0 0 106.7 40" style="enable-background:new 0 0 106.7 40;" xml:space="preserve">
<g>
	<g>
		<path d="M104.7,2v36H2V2H104.7 M106.7,0H0v40h106.7V0L106.7,0z"/>
	</g>
	<g>
		<path d="M27.6,24.7L24,21.2v3.5h-1.6v-9.3H24v3.5l3.5-3.5h2.3L25.1,20l4.7,4.7H27.6z"/>
		<path d="M38.3,15.1c0.7,0,1.3,0.1,1.9,0.4c0.6,0.3,1.1,0.6,1.5,1s0.8,1,1,1.5c0.3,0.6,0.4,1.2,0.4,1.9c0,0.7-0.1,1.3-0.4,1.9
			c-0.3,0.6-0.6,1.1-1,1.5s-1,0.8-1.5,1c-0.6,0.3-1.2,0.4-1.9,0.4s-1.3-0.1-1.9-0.4c-0.6-0.3-1.1-0.6-1.5-1s-0.8-1-1-1.5
			c-0.3-0.6-0.4-1.2-0.4-1.9c0-0.7,0.1-1.3,0.4-1.9c0.3-0.6,0.6-1.1,1-1.5s1-0.8,1.5-1C37,15.3,37.6,15.1,38.3,15.1z M38.3,16.7
			c-0.4,0-0.8,0.1-1.2,0.2c-0.4,0.2-0.7,0.4-1.1,0.7c-0.3,0.3-0.5,0.7-0.7,1.1C35.1,19.2,35,19.6,35,20s0.1,0.9,0.2,1.2
			c0.2,0.4,0.4,0.7,0.7,1.1c0.3,0.3,0.7,0.5,1.1,0.7c0.4,0.2,0.8,0.2,1.2,0.2s0.9-0.1,1.2-0.2c0.4-0.2,0.7-0.4,1.1-0.7
			c0.3-0.3,0.5-0.7,0.7-1.1s0.2-0.8,0.2-1.2c0-0.4-0.1-0.8-0.2-1.2c-0.2-0.4-0.4-0.7-0.7-1.1c-0.3-0.3-0.7-0.5-1.1-0.7
			C39.1,16.8,38.7,16.7,38.3,16.7z"/>
		<path d="M53.7,16.7l-4.9,6.4h4.9v1.6h-6.1h-1v-1.3l4.9-6.4h-4.9v-1.6h6.1h1V16.7z"/>
		<path d="M59.2,24.7h-1.6v-9.3h1.6V24.7z"/>
		<path d="M73.1,24.7h-1.8l-0.7-1.6l-0.7-1.6L68,17.3l-1.9,4.2h2.4l0.7,1.6h-3.9l-0.7,1.6h-1.8l4.2-9.3h1.8L73.1,24.7z"/>
		<path d="M82,24.7l-3.5-3.5v3.5h-1.6v-9.3h1.6v3.5l3.5-3.5h2.3L79.6,20l4.7,4.7H82z"/>
	</g>
</g>
</svg>
