<?xml version="1.0" encoding="utf-8"?>
<!-- Generator: Adobe Illustrator 21.0.0, SVG Export Plug-In . SVG Version: 6.00 Build 0)  -->
<svg version="1.1" id="Capa_1" xmlns="http://www.w3.org/2000/svg" xmlns:xlink="http://www.w3.org/1999/xlink" x="0px" y="0px"
	 viewBox="0 0 50 50" style="enable-background:new 0 0 50 50;" xml:space="preserve">
<style type="text/css">
	.st0{fill:#FFFFFF;}
</style>
<g>
	<path class="st0" d="M34.5,3.3c-1.6-1.3-2.7-1-4.3,1.8c-1,1.9-2.7,2.1-3.7,2l0-0.4c1.2-0.6,2-1.8,2-3.2C28.6,1.6,27,0,25,0
		c-2,0-3.6,1.6-3.6,3.6c0,1.4,0.8,2.6,2,3.2l0,0.4c-1,0.1-2.7-0.2-3.7-2C18.1,2.3,17,2,15.5,3.3C13.9,4.6,7.6,12,0,11.4
		c0,0,1.5,3.4,5.6,2.7c0,0,2.2,2.3,5.8,0.7c0,0,1.9,1.7,4.8,0.1c0,0,2.2,1.7,4.5,0.2c0,0,1.3,1,2.8,0.7l0.1,8.6
		c-0.2,0-0.3-0.1-0.5-0.1c0,0-2.5-0.6-5.2-1.3c-2.6-0.7-5.5-1.8-5.9-2.4c0,0,0.1-0.1,0.2-0.1c0.2-0.1,0.6-0.2,1.1-0.3
		c1-0.2,2.2-0.3,3.5-0.3c2.6-0.1,3,0,3.1,0c0-0.1,1.5,0.2,1.9-1.3c0,0,0-0.1,0-0.1c-0.1-1-0.9-1.1-1.5-1.2c-1.1-0.1-0.5-0.1-1.9-0.1
		c-2.4,0.2-9.6-0.4-10.6,3.4c0,0.1,0,0.2,0,0.3c0.3,3.3,7.2,4.8,12.2,5.8c-1.7,1.2-2.6,2.7-3,4.6c-0.2,2.1,1.5,4.1,5.3,6.3
		c-2.9,2.1-4.8,4-4.7,6.4c0.3,1.9,2,4.5,5.3,6.1c0,0,0,0,0,0l0,0c0,0,0,0,0,0c0,0-2.3-3.5-2.5-5.5c-0.2-1.1,0.5-2.8,3.3-4.8l0.1,7.1
		h0c0,0.6,0.5,1.1,1.1,1.1c0.6,0,1-0.5,1.1-1.1h0l0.1-6.9c2.6,1.9,3.2,3.5,3,4.6C29,46.5,26.7,50,26.7,50s0,0,0,0c0,0,0,0,0,0
		c3.3-1.6,5-4.2,5.3-6.1c0.2-2.3-1.8-4.3-4.7-6.4c3.8-2.2,5.5-4.2,5.3-6.3c-0.4-2-1.3-3.5-3-4.6c5-1,11.9-2.4,12.2-5.8
		c0-0.1,0-0.2,0-0.3c-0.9-3.8-8.2-3.2-10.6-3.4c-1.4,0-0.9-0.1-1.9,0.1c-0.7,0.1-1.5,0.2-1.5,1.2c0,0,0,0.1,0,0.1
		c0.4,1.5,1.9,1.3,1.9,1.3c0,0,0.5-0.1,3.1,0c1.3,0.1,2.6,0.1,3.5,0.3c0.5,0.1,0.9,0.2,1.1,0.3c0.1,0,0.1,0.1,0.2,0.1
		c-0.4,0.6-3.3,1.7-5.9,2.4c-2.7,0.7-5.3,1.3-5.3,1.3c-0.1,0-0.1,0-0.2,0l0.1-8.6c1.5,0.3,2.8-0.7,2.8-0.7c2.3,1.5,4.5-0.2,4.5-0.2
		c3,1.5,4.8-0.1,4.8-0.1c3.6,1.6,5.8-0.7,5.8-0.7c4.1,0.8,5.6-2.7,5.6-2.7C42.4,12,36.1,4.6,34.5,3.3z M20.3,31.9
		c0.1-0.8-0.2-2.5,3.3-3.9l0.1,7.1c-0.7-0.4-1.4-0.9-2.1-1.3C20.7,33.3,20.2,32.5,20.3,31.9z M28,33.9c-0.6,0.4-1.2,0.8-1.8,1.2
		l0.1-6.8c3.2,1.3,3,3,3.1,3.7C29.4,32.5,29,33.3,28,33.9z"/>
</g>
</svg>
