<?xml version="1.0" encoding="utf-8"?>
<!-- Generator: Adobe Illustrator 21.0.0, SVG Export Plug-In . SVG Version: 6.00 Build 0)  -->
<svg version="1.1" id="Capa_1" xmlns="http://www.w3.org/2000/svg" xmlns:xlink="http://www.w3.org/1999/xlink" x="0px" y="0px"
	 viewBox="0 0 50.1 50" style="enable-background:new 0 0 50.1 50;" xml:space="preserve">
<style type="text/css">
	.st0{fill:#FFFFFF;}
</style>
<g>
	<path class="st0" d="M36.6,48.1V50H13.5v-1.9c0-1.1,0.9-1.9,1.9-1.9h3.9c0.1-2.4,1.7-4.4,3.8-5.2V18.4c-1-0.6-1.7-1.8-1.7-3.1h1.7
		H27h1.7c0,1.3-0.7,2.4-1.7,3.1V41c2.2,0.8,3.7,2.8,3.8,5.2h3.9C35.8,46.1,36.6,47,36.6,48.1z M50.1,30.7c-1.4,4-5.2,6.8-9.6,6.8
		s-8.2-2.9-9.6-6.8h2.2l6.5-17.3c0.3-0.8,1.5-0.8,1.8,0l6.5,17.3L50.1,30.7z M45.8,30.7l-5.4-14.2l-5.4,14.2L45.8,30.7L45.8,30.7z
		 M9.6,11.5c0.9,0,1.6-0.6,1.8-1.4c0.6-0.2,1.3-0.6,2-0.9c1.5-0.7,3.1-1.6,4.9-1.6C20,7.6,21,8.4,21.6,9c0,0.2-0.1,0.3-0.1,0.5
		c0,1.9,1.6,3.5,3.5,3.5s3.5-1.6,3.5-3.5c0-0.2,0-0.3-0.1-0.5c0.6-0.7,1.6-1.4,3.3-1.4c1.7,0,3.4,0.8,4.9,1.6c0.7,0.3,1.3,0.7,2,0.9
		c0.2,0.8,1,1.4,1.8,1.4c1.1,0,1.9-0.9,1.9-1.9s-0.9-1.9-1.9-1.9c-0.6,0-1.1,0.2-1.4,0.6c-0.5-0.2-1-0.5-1.5-0.7
		c-1.7-0.8-3.6-1.8-5.7-1.8c-1.9,0-3.3,0.7-4.2,1.5c-0.4-0.4-0.9-0.8-1.5-1c0.7-0.4,1.2-1.1,1.2-2c0-1.3-2.3-4.2-2.3-4.2
		s-2.3,2.9-2.3,4.2c0,0.9,0.5,1.6,1.2,2c-0.6,0.2-1.1,0.5-1.5,1c-0.9-0.8-2.2-1.5-4.2-1.5c-2.2,0-4.1,1-5.8,1.8
		C12,7.7,11.5,8,11,8.2c-0.4-0.4-0.9-0.6-1.4-0.6c-1.1,0-1.9,0.9-1.9,1.9S8.6,11.5,9.6,11.5z M9.6,37.6c-4.5,0-8.2-2.9-9.6-6.8h2.2
		l6.5-17.3c0.3-0.8,1.5-0.8,1.8,0l6.5,17.3h2.2C17.9,34.7,14.1,37.6,9.6,37.6z M15,30.7L9.6,16.5L4.3,30.7L15,30.7L15,30.7z"/>
</g>
</svg>
