<?xml version="1.0" encoding="utf-8"?>
<!-- Generator: Adobe Illustrator 21.0.0, SVG Export Plug-In . SVG Version: 6.00 Build 0)  -->
<svg version="1.1" id="Isolation_Mode" xmlns="http://www.w3.org/2000/svg" xmlns:xlink="http://www.w3.org/1999/xlink" x="0px"
	 y="0px" viewBox="0 0 50 50" style="enable-background:new 0 0 50 50;" xml:space="preserve">
<style type="text/css">
	.st0{fill:#FFFFFF;}
</style>
<g>
	<path class="st0" d="M33.8,17.2c-0.8,0-1.8,0.6-1.8,1.4l0,5.9c0,0.3-0.2,0.6-0.5,0.6c-0.3,0-0.5-0.2-0.5-0.5V14.5
		c0-1-0.8-1.8-1.8-1.8c-0.9,0-1.8,0.6-1.8,1.5l0,10.2c0,0.3-0.2,0.5-0.5,0.5c-0.3,0-0.5-0.2-0.5-0.5l0-13.6c0-0.5-0.2-0.9-0.5-1.3
		c-0.3-0.3-0.8-0.5-1.3-0.5c-1,0-1.8,0.8-1.8,1.8l0,13.6c0,0.1-0.1,0.3-0.2,0.4c-0.1,0.1-0.2,0.2-0.4,0.2c-0.3,0-0.5-0.2-0.5-0.5
		l0-7.4c0-1.3,0-2.4,0-2.5v0c0-0.9-0.9-1.5-1.8-1.5c-1,0-1.8,0.8-1.8,1.8v14.9c0,0.2-0.2,0.5-0.5,0.5c-0.3,0-0.5-0.1-0.8-0.4
		L15,27.9c-0.4-0.4-0.9-0.6-1.5-0.6c-0.5,0-1,0.2-1.3,0.6c-0.8,0.8-0.8,1.9-0.1,3l0,0c0.1,0.1,1.4,2.2,3.7,4.3
		c2.2,2,5.8,4.3,10.4,4.3c8.1,0,9.3-5.3,9.3-8.4l0-12.1C35.6,18,34.8,17.2,33.8,17.2z"/>
	<path class="st0" d="M42.7,7.3C38,2.6,31.7,0,25,0C18.3,0,12,2.6,7.3,7.3C2.6,12,0,18.3,0,25c0,6.7,2.6,13,7.3,17.7
		C12,47.4,18.3,50,25,50c6.7,0,13-2.6,17.7-7.3C47.4,38,50,31.7,50,25C50,18.3,47.4,12,42.7,7.3z M41.3,41.3
		C36.9,45.6,31.1,48,25,48c-6.1,0-11.9-2.4-16.3-6.7C4.4,36.9,2,31.1,2,25S4.4,13.1,8.7,8.7C13.1,4.4,18.9,2,25,2
		c6.1,0,11.9,2.4,16.3,6.7C45.6,13.1,48,18.9,48,25S45.6,36.9,41.3,41.3z"/>
</g>
</svg>
