<?xml version="1.0" encoding="utf-8"?>
<!-- Generator: Adobe Illustrator 21.0.0, SVG Export Plug-In . SVG Version: 6.00 Build 0)  -->
<svg version="1.1" id="Capa_1" xmlns="http://www.w3.org/2000/svg" xmlns:xlink="http://www.w3.org/1999/xlink" x="0px" y="0px"
	 viewBox="0 0 50 32.7" style="enable-background:new 0 0 50 32.7;" xml:space="preserve">
<style type="text/css">
	.st0{fill:#FFFFFF;}
</style>
<g>
	<path class="st0" d="M46.9,10.4c0,0-0.1-0.1-0.1-0.1L45,8.6c1.5-0.3,3-1.5,3-2.8c0-1.5-2-2-3.7-2c-1.8,0-2,1.2-2,2.1l-4.5-4.4
		c-0.9-0.9-2.7-1.6-4-1.6H25h0h-8.8c-1.3,0-3,0.7-4,1.6L7.7,6c0-0.9-0.2-2.1-2-2.1c-1.7,0-3.7,0.5-3.7,2c0,1.2,1.6,2.5,3,2.8
		l-1.8,1.7c0,0-0.1,0.1-0.1,0.1C1.2,12.1,0,15,0,17.2v6.4c0,1.6,0.6,3,1.6,4v2.5c0,1.5,1.2,2.6,2.7,2.6h3.3c1.5,0,2.7-1.2,2.7-2.6
		v-0.6H25h0h14.7v0.6c0,1.5,1.2,2.6,2.7,2.6h3.3c1.5,0,2.7-1.2,2.7-2.6v-2.5c1-1.1,1.6-2.5,1.6-4v-6.4C50,15,48.8,12.1,46.9,10.4z
		 M13.9,3.6c0.6-0.5,1.7-0.9,2.3-0.9H25h0h8.8c0.6,0,1.7,0.4,2.3,0.9L42,9.3H25h0H8L13.9,3.6z M2,16.2c0-1.6,1.2-2.9,2.8-2.9
		c1.5,0,6.5,2.9,6.5,4.5c0,1.6-5,1.2-6.5,1.2C3.3,19.1,2,17.8,2,16.2z M10.3,26.6H9.8H9.3l-3.1,0c-0.9-0.3-1.5-0.6-1.9-0.9
		c-0.2-0.2-0.4-0.3-0.5-0.5c-0.1-0.2-0.2-0.4-0.3-0.5c-0.4-1.1,0.4-2.1,0.4-2.1h5.3l3.5,4.1L10.3,26.6L10.3,26.6z M32.7,26.6H25h0
		h-7.6c-1.6,0-2.9-1.3-2.9-2.9H25h0h10.5C35.5,25.4,34.2,26.6,32.7,26.6z M33.3,21.8H25h0h-8.3c-1.7,0-3.1-2.1-3.1-4.8H25h0h11.5
		C36.5,19.6,35.1,21.8,33.3,21.8z M46.6,24.7c-0.1,0.2-0.2,0.4-0.3,0.5c-0.1,0.2-0.3,0.4-0.5,0.5c-0.4,0.3-1,0.7-1.9,0.9l-3.1,0
		h-0.5h-0.5h-2.4l3.5-4.1h5.3C46.2,22.6,47,23.6,46.6,24.7z M45.2,19.1c-1.5,0-6.5,0.4-6.5-1.2c0-1.6,5-4.5,6.5-4.5
		c1.5,0,2.8,1.3,2.8,2.9C48,17.8,46.7,19.1,45.2,19.1z"/>
</g>
</svg>
