<?xml version="1.0" encoding="utf-8"?>
<!-- Generator: Adobe Illustrator 21.0.0, SVG Export Plug-In . SVG Version: 6.00 Build 0)  -->
<svg version="1.1" id="Layer_1" xmlns="http://www.w3.org/2000/svg" xmlns:xlink="http://www.w3.org/1999/xlink" x="0px" y="0px"
	 viewBox="0 0 50 46.9" style="enable-background:new 0 0 50 46.9;" xml:space="preserve">
<style type="text/css">
	.st0{fill:#FFFFFF;}
</style>
<path class="st0" d="M22,33.7h-1.1c-0.4,0-0.8-0.3-0.9-0.7c-0.2-1-0.6-1.9-1.2-2.8c-0.2-0.3-0.2-0.8,0.1-1.1l0.7-0.7
	c0.3-0.3,0.3-0.9,0-1.2c-0.2-0.2-0.4-0.3-0.6-0.3c0,0,0,0,0,0c-0.2,0-0.5,0.1-0.6,0.3l-0.7,0.7c-0.3,0.3-0.8,0.3-1.1,0.1
	c-0.8-0.6-1.8-0.9-2.8-1.2c-0.4-0.1-0.7-0.4-0.7-0.9V25c0-0.5-0.4-0.9-0.9-0.9c-0.5,0-0.9,0.4-0.9,0.9V26c0,0.4-0.3,0.8-0.7,0.9
	c-1,0.2-1.9,0.6-2.8,1.2c-0.3,0.2-0.8,0.2-1.1-0.1l-0.7-0.7c-0.3-0.3-0.9-0.3-1.2,0c-0.2,0.2-0.3,0.4-0.3,0.6c0,0.2,0.1,0.5,0.3,0.6
	l0.7,0.7c0.3,0.3,0.3,0.8,0.1,1.1c-0.6,0.8-0.9,1.8-1.2,2.8c-0.1,0.4-0.4,0.7-0.9,0.7H2.6c-0.5,0-0.9,0.4-0.9,0.9
	c0,0.5,0.4,0.9,0.9,0.9h1.1c0.4,0,0.8,0.3,0.9,0.7c0.2,1,0.6,1.9,1.2,2.8c0.2,0.3,0.2,0.8-0.1,1.1l-0.7,0.7c-0.3,0.3-0.3,0.9,0,1.2
	c0.2,0.2,0.4,0.3,0.6,0.3c0,0,0,0,0,0c0.2,0,0.5-0.1,0.6-0.3l0.7-0.7c0.2-0.2,0.4-0.3,0.6-0.3c0.2,0,0.3,0,0.5,0.1
	c0.8,0.6,1.8,0.9,2.8,1.2c0.4,0.1,0.7,0.4,0.7,0.9v1.1c0,0.5,0.4,0.9,0.9,0.9c0.5,0,0.9-0.4,0.9-0.9v-1.1c0-0.4,0.3-0.8,0.7-0.9
	c1-0.2,1.9-0.6,2.8-1.2c0.3-0.2,0.8-0.2,1.1,0.1l0.7,0.7c0.3,0.3,0.9,0.3,1.2,0c0.2-0.2,0.3-0.4,0.3-0.6c0-0.2-0.1-0.5-0.3-0.6
	L19,40.1c-0.3-0.3-0.3-0.8-0.1-1.1c0.6-0.8,1-1.8,1.2-2.8c0.1-0.4,0.4-0.7,0.9-0.7H22c0.5,0,0.9-0.4,0.9-0.9
	C22.8,34.1,22.5,33.7,22,33.7z M12.3,38.1c-1.9,0-3.5-1.6-3.5-3.5c0-1.9,1.6-3.5,3.5-3.5s3.5,1.6,3.5,3.5
	C15.8,36.6,14.2,38.1,12.3,38.1z"/>
<path class="st0" d="M22.8,10.7c0-0.4,0.3-0.8,0.7-0.8l0.9-0.1c0.2,0,0.3-0.1,0.4-0.2C24.9,9.4,25,9.2,25,9.1
	c-0.1-0.3-0.4-0.6-0.7-0.5l-0.9,0.1c-0.4,0.1-0.8-0.2-1-0.6c-0.3-0.8-0.7-1.5-1.3-2.1c-0.3-0.3-0.3-0.8-0.1-1.1l0.5-0.7
	c0.1-0.1,0.1-0.3,0.1-0.5c0-0.2-0.1-0.3-0.2-0.4c-0.1-0.1-0.3-0.1-0.5-0.1c-0.2,0-0.3,0.1-0.4,0.2l-0.5,0.7
	c-0.2,0.3-0.7,0.5-1.1,0.3c-0.8-0.3-1.6-0.5-2.4-0.6c-0.4,0-0.8-0.3-0.8-0.7l-0.1-0.9c-0.1-0.3-0.4-0.6-0.7-0.5
	c-0.2,0-0.3,0.1-0.4,0.2c-0.1,0.1-0.1,0.3-0.1,0.5l0.1,0.9c0.1,0.4-0.2,0.8-0.6,1c-0.8,0.3-1.5,0.7-2.1,1.3
	c-0.3,0.3-0.8,0.3-1.1,0.1L10,5.1C9.7,4.9,9.4,5,9.2,5.3C9.1,5.4,9,5.6,9.1,5.7c0,0.2,0.1,0.3,0.2,0.4L10,6.7
	c0.3,0.2,0.5,0.7,0.3,1.1C10,8.5,9.8,9.3,9.7,10.2c0,0.4-0.3,0.8-0.7,0.8l-0.9,0.1c-0.3,0.1-0.6,0.4-0.5,0.7
	c0.1,0.3,0.4,0.6,0.7,0.5l0.9-0.1c0.4-0.1,0.8,0.2,1,0.6c0.3,0.8,0.7,1.5,1.3,2.1c0.3,0.3,0.3,0.8,0.1,1.1L11,16.7
	c-0.2,0.3-0.1,0.7,0.1,0.8c0.3,0.2,0.6,0.1,0.8-0.1l0.5-0.7c0.2-0.2,0.4-0.4,0.7-0.4c0.1,0,0.2,0,0.4,0.1c0.8,0.3,1.6,0.5,2.4,0.6
	c0.4,0,0.8,0.3,0.8,0.7l0.1,0.9c0,0.2,0.1,0.3,0.2,0.4c0.1,0.1,0.3,0.1,0.5,0.1c0.3-0.1,0.6-0.4,0.5-0.7L18,17.5
	c-0.1-0.4,0.2-0.8,0.6-1c0.8-0.3,1.5-0.7,2.1-1.3c0.3-0.3,0.8-0.3,1.1-0.1l0.7,0.5c0.1,0.1,0.3,0.1,0.4,0.1c0.2,0,0.3-0.1,0.4-0.2
	c0.1-0.1,0.1-0.3,0.1-0.5c0-0.2-0.1-0.3-0.2-0.4l-0.7-0.5c-0.3-0.2-0.5-0.7-0.3-1.1C22.6,12.4,22.8,11.6,22.8,10.7z M18.8,12.3
	L18.8,12.3c-0.6,0.8-1.6,1.3-2.5,1.3c-0.6,0-1.3-0.2-1.8-0.6c-0.7-0.5-1.1-1.2-1.2-2c-0.1-0.8,0.1-1.6,0.6-2.3c1-1.4,3-1.7,4.3-0.7
	C19.5,8.9,19.8,10.9,18.8,12.3z"/>
<path class="st0" d="M48.2,22.1c-0.1-0.5-0.6-0.8-1.2-0.7L46,21.7c-0.4,0.1-0.8-0.1-1-0.5c-0.5-1-1.1-1.8-1.9-2.6
	c-0.3-0.3-0.4-0.7-0.2-1.1l0.6-1c0.1-0.2,0.2-0.5,0.1-0.7c-0.1-0.3-0.2-0.5-0.4-0.6c-0.2-0.1-0.5-0.2-0.7-0.1
	c-0.2,0.1-0.5,0.2-0.6,0.4l-0.6,1c-0.2,0.4-0.7,0.5-1,0.4c-1-0.4-2.1-0.5-3.1-0.5c-0.4,0-0.8-0.3-0.9-0.7l-0.3-1.1
	c-0.1-0.5-0.7-0.8-1.2-0.7c-0.5,0.1-0.8,0.7-0.7,1.2l0.3,1.1c0.1,0.4-0.1,0.8-0.5,1c-1,0.5-1.8,1.1-2.6,1.9
	c-0.3,0.3-0.7,0.4-1.1,0.2l-1-0.6c-0.2-0.1-0.5-0.2-0.7-0.1c-0.3,0.1-0.5,0.2-0.6,0.4c-0.1,0.2-0.2,0.5-0.1,0.7
	c0.1,0.2,0.2,0.5,0.4,0.6l1,0.6c0.4,0.2,0.5,0.7,0.4,1c-0.4,1-0.5,2.1-0.5,3.1c0,0.4-0.3,0.8-0.7,0.9l-1.1,0.3
	c-0.3,0.1-0.5,0.2-0.6,0.4c-0.1,0.2-0.2,0.5-0.1,0.7c0.1,0.5,0.6,0.8,1.2,0.7l1.1-0.3c0.4-0.1,0.8,0.1,1,0.5c0.5,1,1.1,1.8,1.9,2.6
	c0.3,0.3,0.4,0.7,0.2,1.1l-0.6,1c-0.1,0.2-0.2,0.5-0.1,0.7c0.1,0.3,0.2,0.5,0.4,0.6c0.2,0.1,0.5,0.2,0.7,0.1
	c0.2-0.1,0.5-0.2,0.6-0.4l0.6-1c0.2-0.4,0.7-0.5,1-0.4c1,0.4,2.1,0.5,3.1,0.5c0,0,0,0,0,0c0.4,0,0.8,0.3,0.9,0.7l0.3,1.1
	c0.1,0.3,0.2,0.5,0.4,0.6c0.2,0.1,0.5,0.2,0.7,0.1c0.3-0.1,0.5-0.2,0.6-0.4c0.1-0.2,0.2-0.5,0.1-0.7l-0.3-1.1
	c-0.1-0.4,0.1-0.8,0.5-1c1-0.5,1.8-1.1,2.6-1.9c0.3-0.3,0.7-0.4,1.1-0.2l1,0.6c0.2,0.1,0.5,0.2,0.7,0.1c0.3-0.1,0.5-0.2,0.6-0.4
	c0.1-0.2,0.2-0.5,0.1-0.7c-0.1-0.2-0.2-0.5-0.4-0.6l-1-0.6c-0.4-0.2-0.5-0.7-0.4-1c0.4-1,0.5-2.1,0.5-3.1c0-0.4,0.3-0.8,0.7-0.9
	l1.1-0.3C48,23.2,48.3,22.7,48.2,22.1z M38.3,28.4c-0.3,0.1-0.6,0.1-0.9,0.1c-1.6,0-3.1-1.1-3.5-2.8c-0.2-0.9-0.1-1.9,0.4-2.8
	c0.5-0.8,1.3-1.4,2.2-1.7c0.9-0.2,1.9-0.1,2.8,0.4c0.8,0.5,1.4,1.3,1.7,2.2C41.4,25.9,40.2,27.9,38.3,28.4z"/>
<g>
	<path class="st0" d="M12.3,31.1c-1.9,0-3.5,1.6-3.5,3.5c0,1.9,1.6,3.5,3.5,3.5s3.5-1.6,3.5-3.5C15.8,32.7,14.2,31.1,12.3,31.1z
		 M12.3,36.4c-1,0-1.8-0.8-1.8-1.8c0-1,0.8-1.8,1.8-1.8s1.8,0.8,1.8,1.8C14.1,35.6,13.3,36.4,12.3,36.4z"/>
	<path class="st0" d="M22,32h-0.4c-0.2-0.7-0.5-1.4-0.9-2.1l0.3-0.3c1-1,1-2.7,0-3.7c-0.5-0.5-1.2-0.8-1.9-0.8c0,0,0,0,0,0
		c-0.7,0-1.4,0.3-1.9,0.8L17,26.2c-0.7-0.4-1.4-0.7-2.1-0.9V25c0-1.5-1.2-2.6-2.6-2.6S9.7,23.5,9.7,25v0.4c-0.7,0.2-1.4,0.5-2.1,0.9
		l-0.3-0.3c-1-1-2.7-1-3.7,0c-0.5,0.5-0.8,1.2-0.8,1.9c0,0.7,0.3,1.4,0.8,1.9l0.3,0.3C3.5,30.6,3.2,31.3,3,32H2.6
		C1.2,32,0,33.2,0,34.6c0,1.5,1.2,2.6,2.6,2.6H3c0.2,0.7,0.5,1.4,0.9,2.1l-0.3,0.3c-1,1-1,2.7,0,3.7c0.5,0.5,1.2,0.8,1.9,0.8
		c0,0,0,0,0,0c0.7,0,1.4-0.3,1.9-0.8l0.3-0.3c0.7,0.4,1.4,0.7,2.1,0.9v0.4c0,1.5,1.2,2.6,2.6,2.6s2.6-1.2,2.6-2.6v-0.4
		c0.7-0.2,1.4-0.5,2.1-0.9l0.3,0.3c1,1,2.7,1,3.7,0c0.5-0.5,0.8-1.2,0.8-1.9c0-0.7-0.3-1.4-0.8-1.9l-0.3-0.3
		c0.4-0.7,0.7-1.4,0.9-2.1H22c1.5,0,2.6-1.2,2.6-2.6S23.4,32,22,32z M22,35.5h-1.1c-0.4,0-0.8,0.3-0.9,0.7c-0.2,1-0.6,1.9-1.2,2.8
		c-0.2,0.3-0.2,0.8,0.1,1.1l0.7,0.7c0.2,0.2,0.3,0.4,0.3,0.6c0,0.2-0.1,0.5-0.3,0.6c-0.3,0.3-0.9,0.3-1.2,0l-0.7-0.7
		C17.5,41,17,41,16.7,41.2c-0.8,0.6-1.8,0.9-2.8,1.2c-0.4,0.1-0.7,0.4-0.7,0.9v1.1c0,0.5-0.4,0.9-0.9,0.9c-0.5,0-0.9-0.4-0.9-0.9
		v-1.1c0-0.4-0.3-0.8-0.7-0.9c-1-0.2-1.9-0.6-2.8-1.2c-0.1-0.1-0.3-0.1-0.5-0.1c-0.2,0-0.5,0.1-0.6,0.3l-0.7,0.7
		c-0.2,0.2-0.4,0.3-0.6,0.3c0,0,0,0,0,0c-0.2,0-0.5-0.1-0.6-0.3c-0.3-0.3-0.3-0.9,0-1.2l0.7-0.7c0.3-0.3,0.3-0.8,0.1-1.1
		c-0.6-0.8-0.9-1.8-1.2-2.8c-0.1-0.4-0.4-0.7-0.9-0.7H2.6c-0.5,0-0.9-0.4-0.9-0.9c0-0.5,0.4-0.9,0.9-0.9h1.1c0.4,0,0.8-0.3,0.9-0.7
		c0.2-1,0.6-1.9,1.2-2.8c0.2-0.3,0.2-0.8-0.1-1.1l-0.7-0.7c-0.2-0.2-0.3-0.4-0.3-0.6c0-0.2,0.1-0.5,0.3-0.6c0.3-0.3,0.9-0.3,1.2,0
		l0.7,0.7c0.3,0.3,0.8,0.3,1.1,0.1c0.8-0.6,1.8-0.9,2.8-1.2c0.4-0.1,0.7-0.4,0.7-0.9V25c0-0.5,0.4-0.9,0.9-0.9
		c0.5,0,0.9,0.4,0.9,0.9V26c0,0.4,0.3,0.8,0.7,0.9c1,0.2,1.9,0.6,2.8,1.2c0.3,0.2,0.8,0.2,1.1-0.1l0.7-0.7c0.2-0.2,0.4-0.3,0.6-0.3
		c0,0,0,0,0,0c0.2,0,0.5,0.1,0.6,0.3c0.3,0.3,0.3,0.9,0,1.2L19,29.2c-0.3,0.3-0.3,0.8-0.1,1.1c0.6,0.8,1,1.8,1.2,2.8
		c0.1,0.4,0.4,0.7,0.9,0.7H22c0.5,0,0.9,0.4,0.9,0.9C22.8,35.1,22.5,35.5,22,35.5z"/>
	<path class="st0" d="M39.3,21.7c-0.8-0.5-1.8-0.6-2.8-0.4c-0.9,0.2-1.7,0.8-2.2,1.7c-0.5,0.8-0.6,1.8-0.4,2.8
		c0.4,1.7,1.9,2.8,3.5,2.8c0.3,0,0.6,0,0.9-0.1c2-0.5,3.1-2.5,2.7-4.4C40.7,23,40.1,22.2,39.3,21.7z M39,25.8
		c-0.3,0.4-0.7,0.7-1.2,0.9c-1,0.3-2-0.4-2.3-1.4c-0.1-0.5,0-1,0.2-1.4c0.3-0.4,0.7-0.7,1.2-0.9c0.2,0,0.3-0.1,0.5-0.1
		c0.3,0,0.7,0.1,1,0.3c0.4,0.3,0.7,0.7,0.9,1.2C39.4,24.9,39.3,25.4,39,25.8z"/>
	<path class="st0" d="M47.9,25c1.5-0.4,2.3-1.8,2-3.3c-0.4-1.5-1.8-2.3-3.3-2l-0.4,0.1c-0.4-0.7-0.9-1.4-1.4-1.9l0.2-0.4
		c0.4-0.6,0.5-1.4,0.3-2.1c-0.2-0.7-0.6-1.3-1.2-1.7c-0.6-0.4-1.4-0.5-2.1-0.3c-0.7,0.2-1.3,0.6-1.7,1.2l-0.2,0.4
		c-0.8-0.2-1.6-0.3-2.4-0.4l-0.1-0.4c-0.4-1.5-1.8-2.3-3.3-2c-1.5,0.4-2.4,1.8-2,3.3l0.1,0.4c-0.7,0.4-1.4,0.9-1.9,1.4l-0.4-0.2
		c-0.6-0.4-1.4-0.5-2.1-0.3c-0.7,0.2-1.3,0.6-1.7,1.2c-0.4,0.6-0.5,1.4-0.3,2.1c0.2,0.7,0.6,1.3,1.2,1.7l0.4,0.2
		c-0.2,0.8-0.3,1.6-0.4,2.4l-0.4,0.1c-0.7,0.2-1.3,0.6-1.7,1.2c-0.4,0.6-0.5,1.4-0.3,2.1c0.4,1.5,1.8,2.4,3.3,2l0.4-0.1
		c0.4,0.7,0.9,1.4,1.4,1.9l-0.2,0.4c-0.4,0.6-0.5,1.4-0.3,2.1c0.2,0.7,0.6,1.3,1.2,1.7c0.6,0.4,1.4,0.5,2.1,0.3
		c0.7-0.2,1.3-0.6,1.7-1.2l0.2-0.4c0.8,0.2,1.6,0.3,2.4,0.4l0.1,0.4c0.2,0.7,0.6,1.3,1.2,1.7c0.4,0.3,0.9,0.4,1.4,0.4
		c0.2,0,0.4,0,0.7-0.1c0.7-0.2,1.3-0.6,1.7-1.2c0.4-0.6,0.5-1.4,0.3-2.1l-0.1-0.4c0.7-0.4,1.4-0.9,1.9-1.4l0.4,0.2
		c0.6,0.4,1.4,0.5,2.1,0.3c0.7-0.2,1.3-0.6,1.7-1.2c0.4-0.6,0.5-1.4,0.3-2.1c-0.2-0.7-0.6-1.3-1.2-1.7l-0.4-0.2
		c0.2-0.8,0.3-1.6,0.4-2.4L47.9,25z M46.4,23.6c-0.4,0.1-0.7,0.5-0.7,0.9c0,1.1-0.1,2.1-0.5,3.1c-0.1,0.4,0,0.8,0.4,1l1,0.6
		c0.2,0.1,0.4,0.3,0.4,0.6c0.1,0.3,0,0.5-0.1,0.7c-0.1,0.2-0.3,0.4-0.6,0.4c-0.3,0.1-0.5,0-0.7-0.1l-1-0.6c-0.4-0.2-0.8-0.1-1.1,0.2
		c-0.7,0.8-1.6,1.4-2.6,1.9c-0.4,0.2-0.6,0.6-0.5,1l0.3,1.1c0.1,0.3,0,0.5-0.1,0.7c-0.1,0.2-0.3,0.4-0.6,0.4c-0.2,0.1-0.5,0-0.7-0.1
		c-0.2-0.1-0.4-0.3-0.4-0.6l-0.3-1.1c-0.1-0.4-0.5-0.7-0.9-0.7c0,0,0,0,0,0c-1.1,0-2.1-0.1-3.1-0.5c-0.4-0.1-0.8,0-1,0.4l-0.6,1
		c-0.1,0.2-0.3,0.4-0.6,0.4c-0.2,0.1-0.5,0-0.7-0.1c-0.2-0.1-0.4-0.3-0.4-0.6c-0.1-0.3,0-0.5,0.1-0.7l0.6-1c0.2-0.4,0.1-0.8-0.2-1.1
		c-0.8-0.7-1.4-1.6-1.9-2.6c-0.2-0.4-0.6-0.6-1-0.5l-1.1,0.3c-0.5,0.1-1-0.2-1.2-0.7c-0.1-0.3,0-0.5,0.1-0.7
		c0.1-0.2,0.3-0.4,0.6-0.4l1.1-0.3c0.4-0.1,0.7-0.5,0.7-0.9c0-1.1,0.1-2.1,0.5-3.1c0.1-0.4,0-0.8-0.4-1l-1-0.6
		c-0.2-0.1-0.4-0.3-0.4-0.6c-0.1-0.3,0-0.5,0.1-0.7c0.1-0.2,0.3-0.4,0.6-0.4c0.3-0.1,0.5,0,0.7,0.1l1,0.6c0.4,0.2,0.8,0.1,1.1-0.2
		c0.7-0.8,1.6-1.4,2.6-1.9c0.4-0.2,0.6-0.6,0.5-1L34,15.2c-0.1-0.5,0.2-1,0.7-1.2c0.5-0.1,1,0.2,1.2,0.7l0.3,1.1
		c0.1,0.4,0.5,0.7,0.9,0.7c1.1,0,2.1,0.1,3.1,0.5c0.4,0.1,0.8,0,1-0.4l0.6-1c0.1-0.2,0.3-0.4,0.6-0.4c0.3-0.1,0.5,0,0.7,0.1
		c0.2,0.1,0.4,0.3,0.4,0.6c0.1,0.3,0,0.5-0.1,0.7l-0.6,1c-0.2,0.4-0.1,0.8,0.2,1.1c0.8,0.7,1.4,1.6,1.9,2.6c0.2,0.4,0.6,0.6,1,0.5
		l1.1-0.3c0.5-0.1,1,0.2,1.2,0.7c0.1,0.5-0.2,1-0.7,1.2L46.4,23.6z"/>
	<path class="st0" d="M18.1,7.9c-1.4-1-3.3-0.7-4.3,0.7c-0.5,0.7-0.7,1.5-0.6,2.3c0.1,0.8,0.6,1.5,1.2,2c0.6,0.4,1.2,0.6,1.8,0.6
		c1,0,1.9-0.4,2.5-1.3l0,0C19.8,10.9,19.5,8.9,18.1,7.9z M17.4,11.2c-0.4,0.6-1.3,0.7-1.9,0.3c-0.3-0.2-0.5-0.5-0.5-0.9
		c-0.1-0.4,0-0.7,0.2-1c0.3-0.4,0.7-0.6,1.1-0.6c0.3,0,0.6,0.1,0.8,0.3C17.7,9.8,17.8,10.6,17.4,11.2z"/>
	<path class="st0" d="M25.2,14.9c-0.1-0.6-0.4-1.2-0.9-1.5l-0.2-0.1c0.2-0.5,0.3-1.1,0.4-1.7l0.2,0c0.6-0.1,1.2-0.4,1.5-0.9
		c0.4-0.5,0.5-1.1,0.4-1.8c-0.2-1.3-1.4-2.2-2.7-2l-0.2,0c-0.2-0.5-0.6-1-0.9-1.5L23,5.2c0.4-0.5,0.5-1.1,0.4-1.8
		c-0.1-0.6-0.4-1.2-0.9-1.5c-0.5-0.4-1.1-0.5-1.8-0.4c-0.6,0.1-1.2,0.4-1.5,0.9L19,2.6c-0.5-0.2-1.1-0.3-1.7-0.4l0-0.2
		c-0.2-1.3-1.4-2.2-2.7-2C14,0.1,13.5,0.5,13.1,1c-0.4,0.5-0.5,1.1-0.4,1.8l0,0.2c-0.5,0.2-1,0.6-1.5,0.9L11,3.7
		C10,3,8.5,3.2,7.7,4.2C7.4,4.8,7.2,5.4,7.3,6c0.1,0.6,0.4,1.2,0.9,1.5l0.2,0.1C8.2,8.2,8.1,8.8,8,9.4l-0.2,0
		c-1.3,0.2-2.2,1.4-2,2.7c0.2,1.3,1.4,2.2,2.7,2l0.2,0c0.2,0.5,0.6,1,0.9,1.5l-0.1,0.2C8.8,16.7,9,18.2,10.1,19
		c1.1,0.8,2.5,0.5,3.3-0.5l0.1-0.2c0.5,0.2,1.1,0.3,1.7,0.4l0,0.2c0.1,0.6,0.4,1.2,0.9,1.5c0.4,0.3,0.9,0.5,1.4,0.5
		c0.1,0,0.3,0,0.4,0c1.3-0.2,2.2-1.4,2-2.7l0-0.2c0.5-0.2,1-0.6,1.5-0.9l0.2,0.1c0.5,0.4,1.1,0.5,1.8,0.4c0.6-0.1,1.2-0.4,1.5-0.9
		C25.2,16.1,25.3,15.5,25.2,14.9z M22.5,14.2l0.7,0.5c0.1,0.1,0.2,0.2,0.2,0.4c0,0.2,0,0.3-0.1,0.5c-0.1,0.1-0.2,0.2-0.4,0.2
		c-0.2,0-0.3,0-0.4-0.1l-0.7-0.5C21.5,15,21,15,20.7,15.3c-0.6,0.6-1.3,1-2.1,1.3c-0.4,0.1-0.6,0.5-0.6,1l0.1,0.9
		c0.1,0.3-0.2,0.6-0.5,0.7c-0.2,0-0.3,0-0.5-0.1c-0.1-0.1-0.2-0.2-0.2-0.4l-0.1-0.9C16.7,17.3,16.4,17,16,17c-0.8,0-1.7-0.2-2.4-0.6
		c-0.1-0.1-0.2-0.1-0.4-0.1c-0.3,0-0.5,0.1-0.7,0.4L12,17.4c-0.2,0.3-0.6,0.3-0.8,0.1c-0.3-0.2-0.3-0.6-0.1-0.8l0.5-0.7
		c0.2-0.3,0.2-0.8-0.1-1.1c-0.6-0.6-1-1.3-1.3-2.1c-0.1-0.4-0.5-0.6-1-0.6l-0.9,0.1c-0.3,0.1-0.6-0.2-0.7-0.5
		c-0.1-0.3,0.2-0.6,0.5-0.7L9,11c0.4-0.1,0.7-0.4,0.7-0.8c0-0.8,0.2-1.7,0.6-2.4c0.2-0.4,0.1-0.8-0.3-1.1L9.3,6.1
		C9.2,6,9.1,5.9,9.1,5.7c0-0.2,0-0.3,0.1-0.5C9.4,5,9.7,4.9,10,5.1l0.7,0.5c0.3,0.2,0.8,0.2,1.1-0.1c0.6-0.6,1.3-1,2.1-1.3
		c0.4-0.1,0.6-0.5,0.6-1l-0.1-0.9c0-0.2,0-0.3,0.1-0.5c0.1-0.1,0.2-0.2,0.4-0.2c0.3-0.1,0.6,0.2,0.7,0.5l0.1,0.9
		c0.1,0.4,0.4,0.7,0.8,0.7c0.8,0,1.7,0.2,2.4,0.6c0.4,0.2,0.8,0.1,1.1-0.3l0.5-0.7c0.1-0.1,0.2-0.2,0.4-0.2c0.2,0,0.3,0,0.5,0.1
		c0.1,0.1,0.2,0.2,0.2,0.4c0,0.2,0,0.3-0.1,0.5l-0.5,0.7c-0.2,0.3-0.2,0.8,0.1,1.1c0.6,0.6,1,1.3,1.3,2.1c0.1,0.4,0.6,0.6,1,0.6
		l0.9-0.1c0.3-0.1,0.6,0.2,0.7,0.5c0,0.2,0,0.3-0.1,0.5c-0.1,0.1-0.2,0.2-0.4,0.2l-0.9,0.1c-0.4,0.1-0.7,0.4-0.7,0.8
		c0,0.8-0.2,1.7-0.6,2.4C22.1,13.5,22.2,14,22.5,14.2z"/>
</g>
</svg>
