<svg xmlns="http://www.w3.org/2000/svg" xmlns:xlink="http://www.w3.org/1999/xlink" width="27" height="26" viewBox="0 0 27 26"><defs><path id="a" d="M1673.06 1032.23h-1.42l.56-2.8h.3zm13.17 2.82c-.3.81-.75 1.47-1.2 2.03a7.34 7.34 0 0 1-1.15-2.03zm3.77-5.63v15.47c0 1.16-.95 2.11-2.11 2.11h-10.51l3.08-3.52c.39-.44.55-1 .52-1.6l-1.82-14.61h8.73c1.16 0 2.11.99 2.11 2.15zm-1.4 4.92a.7.7 0 0 0-.71-.7h-2.16v-.7a.7.7 0 1 0-1.4 0v.7h-2.11a.7.7 0 1 0 0 1.4h.19c.4 1.3.98 2.3 1.64 3.09-.51.47-1.02.86-1.57 1.29a.7.7 0 1 0 .88 1.1c.6-.47 1.11-.87 1.67-1.38.56.51 1.12.9 1.72 1.38a.7.7 0 1 0 .88-1.1c-.55-.43-1.1-.82-1.62-1.3.66-.78 1.3-1.79 1.7-3.07h.18a.7.7 0 0 0 .7-.7zm-9.02 7.75c0 .31-.18.46-.38.7h-11.09a2.11 2.11 0 0 1-2.11-2.12v-15.56c0-1.16.95-2.11 2.11-2.11h7.24c1.06 0 1.96.8 2.1 1.85l2.13 17.24zm-4.4-6.48l-1.41-7.03a.7.7 0 0 0-.7-.56h-1.45a.7.7 0 0 0-.68.56l-1.41 7.03a.7.7 0 0 0 1.38.28l.45-2.25h1.99l.44 2.25a.7.7 0 0 0 1.38-.28zm-.96 8.58h3.7l-2.37 2.6a2.13 2.13 0 0 1-1.21-1.64z"/></defs><g transform="translate(-1664 -1022)"><use fill="#fff" xlink:href="#a"/></g></svg>