<?xml version="1.0" encoding="utf-8"?>
<!-- Generator: Adobe Illustrator 21.0.0, SVG Export Plug-In . SVG Version: 6.00 Build 0)  -->
<svg version="1.1" id="Capa_1" xmlns="http://www.w3.org/2000/svg" xmlns:xlink="http://www.w3.org/1999/xlink" x="0px" y="0px"
	 viewBox="0 0 14.4 18" style="enable-background:new 0 0 14.4 18;" xml:space="preserve">
<style type="text/css">
	.st0{fill:#FFFFFF;}
</style>
<g>
	<g>
		<path class="st0" d="M7.2,0C3.2,0,0,3.2,0,7.2c0,0.5,0,0.9,0.1,1.4c0,0,0,0.1,0,0.2c0.1,0.5,0.3,1,0.5,1.4
			c0.8,1.8,2.5,4.6,6.2,7.7C7,18,7.1,18,7.2,18c0.1,0,0.2,0,0.3-0.1c3.7-3,5.5-5.8,6.2-7.7c0.2-0.5,0.4-0.9,0.5-1.4
			c0-0.1,0-0.2,0-0.2c0.1-0.4,0.1-0.9,0.1-1.4C14.4,3.2,11.2,0,7.2,0z M13.3,8.4C13.3,8.4,13.3,8.4,13.3,8.4c0,0,0,0.1,0,0.2
			c0,0,0,0,0,0C13.2,9,13,9.4,12.8,9.8c0,0,0,0,0,0c-0.7,1.7-2.3,4.2-5.6,7c-3.4-2.8-4.9-5.3-5.6-7c0,0,0,0,0,0
			C1.4,9.4,1.3,9,1.2,8.6c0,0,0,0,0,0c0-0.1,0-0.1,0-0.2c0,0,0,0,0,0C1.1,8,1,7.6,1,7.2C1,3.8,3.8,1,7.2,1s6.2,2.8,6.2,6.2
			C13.4,7.6,13.4,8,13.3,8.4z"/>
		<path class="st0" d="M7.2,2.7c-2.5,0-4.6,2.1-4.6,4.6s2.1,4.6,4.6,4.6s4.6-2.1,4.6-4.6S9.7,2.7,7.2,2.7z M7.2,10.9
			c-2,0-3.6-1.6-3.6-3.6s1.6-3.6,3.6-3.6s3.6,1.6,3.6,3.6S9.2,10.9,7.2,10.9z"/>
	</g>
</g>
</svg>
