<?xml version="1.0" encoding="utf-8"?>
<!-- Generator: Adobe Illustrator 21.0.0, SVG Export Plug-In . SVG Version: 6.00 Build 0)  -->
<svg version="1.1" id="Capa_1" xmlns="http://www.w3.org/2000/svg" xmlns:xlink="http://www.w3.org/1999/xlink" x="0px" y="0px"
	 viewBox="0 0 20 20" style="enable-background:new 0 0 20 20;" xml:space="preserve">
<style type="text/css">
	.st0{fill:#FFFFFF;}
</style>
<g>
	<g>
		<g>
			<path class="st0" d="M20,15.8c0,0.3-0.1,0.6-0.3,0.8l-2.8,2.8c-0.1,0.1-0.3,0.3-0.5,0.4C16.2,19.9,16,20,15.8,20c0,0-0.1,0-0.1,0
				c-0.1,0-0.2,0-0.3,0c-0.3,0-0.7,0-1.3-0.1s-1.3-0.3-2.2-0.7c-0.9-0.4-1.9-0.9-3-1.6c-1.1-0.7-2.3-1.7-3.5-3c-1-1-1.8-1.9-2.5-2.8
				c-0.6-0.9-1.2-1.7-1.6-2.5C1,8.6,0.7,7.9,0.5,7.3S0.2,6.1,0.1,5.7C0,5.2,0,4.9,0,4.6c0-0.3,0-0.4,0-0.4c0-0.2,0.1-0.4,0.2-0.6
				c0.1-0.2,0.2-0.4,0.4-0.5l2.8-2.8C3.6,0.1,3.8,0,4.1,0c0.2,0,0.3,0.1,0.5,0.2c0.1,0.1,0.3,0.2,0.4,0.4l2.3,4.3
				c0.1,0.2,0.2,0.5,0.1,0.7C7.2,5.9,7.1,6.1,6.9,6.3l-1,1c0,0-0.1,0.1-0.1,0.1s0,0.1,0,0.2c0.1,0.3,0.2,0.6,0.4,1
				C6.3,9,6.6,9.4,7,9.9s0.9,1,1.5,1.7c0.6,0.6,1.2,1.2,1.7,1.5c0.5,0.4,0.9,0.6,1.2,0.8s0.6,0.3,0.8,0.3l0.3,0.1c0,0,0.1,0,0.1,0
				c0.1,0,0.1,0,0.1-0.1l1.2-1.2c0.3-0.2,0.6-0.3,0.9-0.3c0.2,0,0.4,0,0.6,0.1h0l4.1,2.4C19.8,15.3,19.9,15.5,20,15.8z"/>
		</g>
	</g>
</g>
</svg>
