<?xml version="1.0" encoding="utf-8"?>
<!-- Generator: Adobe Illustrator 21.0.0, SVG Export Plug-In . SVG Version: 6.00 Build 0)  -->
<svg version="1.1" id="Capa_1" xmlns="http://www.w3.org/2000/svg" xmlns:xlink="http://www.w3.org/1999/xlink" x="0px" y="0px"
	 viewBox="0 0 18 13.7" style="enable-background:new 0 0 18 13.7;" xml:space="preserve">
<style type="text/css">
	.st0{fill:#FFFFFF;}
</style>
<g>
	<g>
		<path class="st0" d="M15.8,0H2.2C1,0,0,1,0,2.2v9.3c0,1.2,1,2.2,2.2,2.2h13.6c1.2,0,2.2-1,2.2-2.2V2.2C18,1,17,0,15.8,0z M17,11.5
			c0,0.7-0.5,1.2-1.2,1.2H2.2c-0.7,0-1.2-0.5-1.2-1.2V2.2C1,1.5,1.5,1,2.2,1h13.6C16.5,1,17,1.5,17,2.2L17,11.5L17,11.5z"/>
		<path class="st0" d="M11.4,6.7l4.4-3.9c0.2-0.2,0.2-0.5,0-0.7c-0.2-0.2-0.5-0.2-0.7,0L9,7.5L7.8,6.4c0,0,0,0,0,0
			c0,0-0.1,0-0.1-0.1L2.9,2c-0.2-0.2-0.5-0.2-0.7,0C2,2.3,2,2.6,2.2,2.8l4.5,4l-4.4,4.2c-0.2,0.2-0.2,0.5,0,0.7
			c0.1,0.1,0.2,0.2,0.4,0.2c0.1,0,0.2,0,0.3-0.1l4.5-4.2l1.2,1.1C8.8,8.6,8.9,8.7,9,8.7c0.1,0,0.2,0,0.3-0.1l1.3-1.1l4.5,4.3
			c0.1,0.1,0.2,0.1,0.3,0.1c0.1,0,0.3-0.1,0.4-0.2c0.2-0.2,0.2-0.5,0-0.7L11.4,6.7z"/>
	</g>
</g>
</svg>
